# xmcd
#
# Track frame offsets: 
#        150
#        16938
#        31749
#        45987
#        61878
#        76923
#        91846
#        111109
#        127774
#        143133
#        158367
#        174995
#        189841
#        203680
#        216486
#        230807
#        245712
#        260397
#        275856
#        291135
#
# Disc length: 4072 seconds
#
# Revision: 2
# Processed by: cddbd v1.5.2PL0 Copyright (c) Steve Scherf et al.
# Submitted via: ExactAudioCopy v1.3
#
DISCID=0a0fe614
DTITLE=Various Artists (Priester) - Der Deutsche Fox Club Vol.01
DYEAR=2002
DGENRE=Discofox
TTITLE0=Frank Lars - Wenn ich ein Teufel wär
TTITLE1=Klaus Densow - Ich wünsch mir eine Nacht mit Dir
TTITLE2=Yana - Ich träume mich zu Dir
TTITLE3=Oliver Hardt - Kann es sein, daß Du heute abend solo bist?
TTITLE4=Jörg Bausch - Wetten, dass...
TTITLE5=Duo Bella Vista - Komm nach Haus bevor es Nacht wird
TTITLE6=Christian König - Wie bist Du denn drauf?
TTITLE7=Olaf Henning - Ich bin nicht mehr Dein Clown
TTITLE8=Andre' Markus - Am Zuckerwattenstand
TTITLE9=Ulli Bastian - Mein Herz steht Kopf
TTITLE10=Nadine Norell - Te Quero Mi Amor
TTITLE11=Johnny Bach - Du machst Wunder wahr
TTITLE12=Reiner Wahnsinn - Charles der Schotte
TTITLE13=Peter Grimberg - Rama Lama Ding Dong
TTITLE14=Sandy Wagner - Den Himmel auf Erden
TTITLE15=Denise - Da ist immernoch Sehnsucht
TTITLE16=Michaela Kern - Erst küß' ich nur Deine Augen
TTITLE17=Jörg Marvin - Aus und vorbei
TTITLE18=Sally Carter - Lieber nehm' ich Dich
TTITLE19=Jürgen Renfordt - Dann geht das Licht aus
EXTD=
EXTT0=
EXTT1=
EXTT2=
EXTT3=
EXTT4=
EXTT5=
EXTT6=
EXTT7=
EXTT8=
EXTT9=
EXTT10=
EXTT11=
EXTT12=
EXTT13=
EXTT14=
EXTT15=
EXTT16=
EXTT17=
EXTT18=
EXTT19=
PLAYORDER=
